# xmcd
#
# Track frame offsets:
# 150
# 14809
# 34752
# 56562
# 73711
# 93490
# 112402
# 138395
# 156290
# 177326
# 209936
# 227399
# 246161
# 264449
#
# Disc length: 4464 seconds
#
#
# Revision: 33
# Processed by: cddbd v1.5.2PL0 Copyright (c) Steve Scherf et al.
# Submitted via: FreeRIP 2.944 
#
DISCID=d4116e0e
DTITLE=Robbie Williams - Escapology
DYEAR=2002
DGENRE=Pop
TTITLE0=How Peculiar
TTITLE1=Feel
TTITLE2=Something Beautiful
TTITLE3=Monsoon
TTITLE4=Sexed Up
TTITLE5=Love Somebody
TTITLE6=Revolution
TTITLE7=Handsome Man
TTITLE8=Come Undone
TTITLE9=Me and My Monkey
TTITLE10=Song 3
TTITLE11=Hot Fudge
TTITLE12=Cursed
TTITLE13=Nan's Song
EXTD=
EXTT0=
EXTT1=
EXTT2=
EXTT3=
EXTT4=
EXTT5=
EXTT6=
EXTT7=
EXTT8=
EXTT9=
EXTT10=
EXTT11=
EXTT12=
EXTT13=
PLAYORDER=
